<svg xmlns="http://www.w3.org/2000/svg" viewBox="0 0 16 12.8"><path d="M12.2,4.8H8.4V6.2a1.8,1.8,0,0,1-3.6,0v-3l-1.62,1A1.61,1.61,0,0,0,2.4,5.5V6.69L.4,7.84A.8.8,0,0,0,.11,8.93l2,3.47a.8.8,0,0,0,1.09.29L5.79,11.2H9.2a1.6,1.6,0,0,0,1.6-1.6h.4a.8.8,0,0,0,.8-.8V7.2h.2a.6.6,0,0,0,.6-.6V5.4A.6.6,0,0,0,12.2,4.8Zm3.69-.94L13.89.4A.8.8,0,0,0,12.8.11L10.22,1.6H7.66a1.61,1.61,0,0,0-.85.24L6,2.36A.8.8,0,0,0,5.6,3V6.2a1,1,0,1,0,2,0V4h4.6a1.4,1.4,0,0,1,1.4,1.4v.71L15.6,5A.81.81,0,0,0,15.89,3.86Z" style="fill:#010101"/></svg>