<svg xmlns="http://www.w3.org/2000/svg" viewBox="0 0 19 20.4">
  <path d="M19,11.4a4.6,4.6,0,0,1-.4,1.7,3.5,3.5,0,0,1-.8,1.2,3.2,3.2,0,0,1-1.2.7l-1.4.2a4.3,4.3,0,0,1-1.9-.4,3.4,3.4,0,0,1-1.1-.8l-.4.5-.6.5-.9.3H8.9A3.9,3.9,0,0,1,7,15a3.7,3.7,0,0,1-1.3-1.1,5.1,5.1,0,0,1-.8-1.7,7.7,7.7,0,0,1-.3-2,7.9,7.9,0,0,1,.3-2,5,5,0,0,1,.8-1.7A3.7,3.7,0,0,1,8.9,4.9a3.1,3.1,0,0,1,1.7.4l.9.7V5.8a.7.7,0,0,1,.2-.5l.5-.2H13l.5.2a.7.7,0,0,1,.2.5v5.5a2,2,0,0,0,.4,1.3,1.4,1.4,0,0,0,1.1.5l.8-.2.5-.4.3-.6a2.1,2.1,0,0,0,.1-.6q0-.3.1-1.2a15.5,15.5,0,0,0-.1-1.9,6.4,6.4,0,0,0-2.2-4.6A8.3,8.3,0,0,0,9.3,2.1a8.4,8.4,0,0,0-2.5.4A6.5,6.5,0,0,0,4.6,3.6,6.1,6.1,0,0,0,3,5.5a7.1,7.1,0,0,0-.8,2.7v.9q0,.6,0,1.2c0,.4,0,.8,0,1.2a8,8,0,0,0,.1.9A7,7,0,0,0,3,15a6.2,6.2,0,0,0,1.6,1.9A6.5,6.5,0,0,0,6.8,18a8.4,8.4,0,0,0,2.5.4h1.8l1.4-.3,1.1-.4.9-.6.5-.3h1.6l.5.2a.6.6,0,0,1,.2.5.5.5,0,0,1-.2.4l-1.2,1-1.6.9-2.1.6-2.7.2a10.6,10.6,0,0,1-3.3-.5,8.9,8.9,0,0,1-2.9-1.6A8.3,8.3,0,0,1,1,15.9a8.5,8.5,0,0,1-1-3.4q0-.4,0-1t0-1.3T0,9t0-.9A8.4,8.4,0,0,1,1,4.7,8.2,8.2,0,0,1,3,2.1,9.1,9.1,0,0,1,5.9.6,10.4,10.4,0,0,1,9.3,0a13.1,13.1,0,0,1,3.9.5,8.9,8.9,0,0,1,3,1.6,7.1,7.1,0,0,1,2,2.5A9.5,9.5,0,0,1,19,8q0,.5,0,1.1t0,1v.8Q19,11.3,19,11.4ZM6.9,10.2A5.4,5.4,0,0,0,7,11.3a3.4,3.4,0,0,0,.4,1,2.4,2.4,0,0,0,.7.8,1.8,1.8,0,0,0,1.1.3,1.9,1.9,0,0,0,1.8-.8,4.8,4.8,0,0,0,.5-2.3,7.6,7.6,0,0,0-.1-1.3,2.8,2.8,0,0,0-.4-1,1.9,1.9,0,0,0-.7-.7L9.1,7a1.8,1.8,0,0,0-1.1.3,2.4,2.4,0,0,0-.7.8,3.4,3.4,0,0,0-.4,1A5.6,5.6,0,0,0,6.9,10.2Z" fill=""/>
</svg>
