<svg xmlns="http://www.w3.org/2000/svg" viewBox="0 0 19.6 19.1">
  <title>discord-engine-app__connect</title>
  <g>
    <path d="M19,2.6l-.2-.7-.3-.6V.3A18.2,18.2,0,0,0,.3,18.4H1.9l.7.2a3.4,3.4,0,0,0,4.2-2.3l.3-1.2A3.4,3.4,0,0,0,4.8,11h0a.4.4,0,0,1-.2-.6,16.1,16.1,0,0,1,6-5.9.4.4,0,0,1,.6.2v.2a3.4,3.4,0,0,0,4.2,2.3l1.2-.4A3.4,3.4,0,0,0,19,2.6Z" fill="" stroke="" stroke-miterlimit="10" stroke-width="0.5"/>
    <path d="M18,11.3l-4.9,4.9L11,13.9,9.8,15.2,12.5,18l.6.3.6-.3,5.5-5.5Z" fill="" stroke="" stroke-miterlimit="10" stroke-width="0.5"/>
  </g>
</svg>
