<svg xmlns="http://www.w3.org/2000/svg" viewBox="0 0 19.5 19.3">
  <title>discord-engine-app__disconnect</title>
  <g>
    <path d="M19.1,2.6l-.2-.7-.3-.6V.3A18.3,18.3,0,0,0,.3,18.6H1.9l.7.2a3.4,3.4,0,0,0,4.2-2.4l.3-1.2a3.4,3.4,0,0,0-2.4-4.2h0a.4.4,0,0,1-.3-.6,16.2,16.2,0,0,1,6.1-6,.4.4,0,0,1,.6.2V5a3.4,3.4,0,0,0,4.3,2.3l1.2-.4A3.4,3.4,0,0,0,19.1,2.6Z" fill="" stroke="" stroke-miterlimit="10" stroke-width="0.5"/>
    <polygon points="17 11 14.8 13.3 12.5 11 11.3 12.3 13.5 14.5 11.3 16.8 12.5 18 14.8 15.8 17 18 18.3 16.8 16 14.5 18.3 12.3 17 11" fill="" stroke="" stroke-miterlimit="10" stroke-width="0.5"/>
  </g>
</svg>
