<svg xmlns="http://www.w3.org/2000/svg" viewBox="0 0 16 12.8"><path d="M.46,6.39,4.8,5.6,2.52,7.32A.4.4,0,0,0,2.8,8H8.37A6.09,6.09,0,0,1,8,5.91v-1L5,2.67a1.61,1.61,0,0,0-1.93.11L.15,5.69A.4.4,0,0,0,.46,6.39Zm13.92.86L11.86,6a1.21,1.21,0,0,1-.66-1.07V4h1.6l.7.56a.82.82,0,0,0,.57.24h.77a.8.8,0,0,0,.72-.44l.36-.72a.82.82,0,0,0-.08-.84L14,.32A.81.81,0,0,0,13.34,0H7.4a.2.2,0,0,0-.14.34L8.8,1.6l-1.49.62a.2.2,0,0,0,0,.36L8.8,3.2V5.91a5.39,5.39,0,0,0,2.4,4.49A56,56,0,0,0,.35,11.92a.45.45,0,0,0,.09.88H12.92A3,3,0,0,0,16,10a2.91,2.91,0,0,0-1.62-2.78ZM12.23,1.66l1.14.28a.6.6,0,0,1-.6.46.58.58,0,0,1-.54-.74Z" style="fill:#010101"/></svg>