<svg xmlns="http://www.w3.org/2000/svg" viewBox="0 0 16 16"><path d="M9.67,12.17l2.5-2.5L2.92.42.48,0A.42.42,0,0,0,0,.48L.42,2.92Zm6.18,2.27L14,12.59l1-1.85a.5.5,0,0,0-.09-.59l-.55-.55a.5.5,0,0,0-.7,0L9.6,13.65a.5.5,0,0,0,0,.7l.55.55a.5.5,0,0,0,.59.09l1.85-1,1.85,1.85a.5.5,0,0,0,.71,0l.7-.7A.5.5,0,0,0,15.85,14.44ZM15.58,2.92,16,.48A.42.42,0,0,0,15.52,0L13.08.42,8.71,4.79l2.5,2.5,4.37-4.37ZM4.79,8.71,3.12,10.37,2.35,9.6a.5.5,0,0,0-.7,0l-.55.55a.5.5,0,0,0-.09.59l1,1.85L.15,14.44a.5.5,0,0,0,0,.71l.7.7a.5.5,0,0,0,.71,0L3.41,14l1.85,1a.5.5,0,0,0,.59-.09l.55-.55a.5.5,0,0,0,0-.7l-.78-.78,1.67-1.66Z" style="fill:#010101"/></svg>