<svg xmlns="http://www.w3.org/2000/svg" viewBox="0 0 16 16"><path d="M3,0A3,3,0,0,0,0,3,2.94,2.94,0,0,0,.48,4.6L5,.8A3,3,0,0,0,3,0ZM13,0a3,3,0,0,0-2,.8l4.56,3.8A2.94,2.94,0,0,0,16,3,3,3,0,0,0,13,0ZM8,2A7,7,0,0,0,2.4,13.19L1.15,14.44a.5.5,0,0,0,0,.71h0l.7.7a.5.5,0,0,0,.71,0h0L3.81,14.6a7,7,0,0,0,8.38,0l1.25,1.25a.5.5,0,0,0,.71,0l.7-.7a.5.5,0,0,0,0-.71h0L13.6,13.19A7,7,0,0,0,8,2ZM8,13a1,1,0,1,1,1-1A1,1,0,0,1,8,13Zm.79-3.45A.49.49,0,0,1,8.3,10H7.7a.49.49,0,0,1-.49-.45l-.4-4A.5.5,0,0,1,7.26,5H8.7a.5.5,0,0,1,.5.5.09.09,0,0,1,0,0Z" style="fill:#231f20"/></svg>