<svg xmlns="http://www.w3.org/2000/svg" viewBox="0 0 16 16"><path d="M0,12.67V14c0,1.1,2.69,2,6,2s6-.9,6-2V12.67C10.71,13.57,8.35,14,6,14S1.29,13.57,0,12.67ZM10,4c3.31,0,6-.9,6-2s-2.69-2-6-2S4,.9,4,2,6.69,4,10,4ZM0,9.39V11c0,1.1,2.69,2,6,2s6-.9,6-2V9.39C10.71,10.45,8.35,11,6,11S1.29,10.45,0,9.39Zm13,.34c1.79-.35,3-1,3-1.73V6.67a7.65,7.65,0,0,1-3,1.07ZM6,5C2.69,5,0,6.12,0,7.5S2.69,10,6,10s6-1.12,6-2.5S9.31,5,6,5Zm6.85,1.76C14.73,6.42,16,5.76,16,5V3.67A10.24,10.24,0,0,1,11,5,3.49,3.49,0,0,1,12.85,6.76Z" style="fill:#231f20"/></svg>