<svg xmlns="http://www.w3.org/2000/svg" viewBox="0 0 16 16"><path d="M10.14,3.22,12,4l.78,1.86a.23.23,0,0,0,.33.11.2.2,0,0,0,.11-.11L14,4l1.86-.78A.25.25,0,0,0,16,2.89a.2.2,0,0,0-.11-.11L14,2,13.22.14A.23.23,0,0,0,12.89,0a.2.2,0,0,0-.11.11L12,2l-1.86.78a.25.25,0,0,0-.11.33.2.2,0,0,0,.11.11Zm5.72,9.55L14,12l-.78-1.86a.24.24,0,0,0-.33-.12.25.25,0,0,0-.11.12L12,12l-1.86.77a.25.25,0,0,0-.11.34.2.2,0,0,0,.11.11L12,14l.78,1.86a.25.25,0,0,0,.33.11.2.2,0,0,0,.11-.11L14,14l1.86-.78a.23.23,0,0,0,.11-.33A.25.25,0,0,0,15.86,12.77ZM12,8a.51.51,0,0,0-.28-.45L8.21,5.78,6.45,2.25a.53.53,0,0,0-.9,0L3.8,5.78.28,7.54a.5.5,0,0,0-.23.67.51.51,0,0,0,.23.23L3.8,10.2l1.75,3.52a.51.51,0,0,0,.67.23.51.51,0,0,0,.23-.23L8.21,10.2l3.51-1.76A.51.51,0,0,0,12,8Z" style="fill:#231f20"/></svg>