<svg xmlns="http://www.w3.org/2000/svg" viewBox="0 0 16 11.2"><path d="M4.8,5.6A2.8,2.8,0,1,0,2,2.8,2.8,2.8,0,0,0,4.8,5.6Zm1.92.8H6.51a3.86,3.86,0,0,1-3.42,0H2.88A2.88,2.88,0,0,0,0,9.28V10a1.2,1.2,0,0,0,1.2,1.2H8.4A1.2,1.2,0,0,0,9.6,10V9.28A2.88,2.88,0,0,0,6.72,6.4ZM12,5.6A2.4,2.4,0,1,0,9.6,3.2,2.39,2.39,0,0,0,12,5.6Zm1.2.8h-.09a3.18,3.18,0,0,1-2.22,0H10.8a2.83,2.83,0,0,0-1.39.38,3.68,3.68,0,0,1,1,2.5v1a.78.78,0,0,1,0,.16H14.8A1.2,1.2,0,0,0,16,9.2,2.8,2.8,0,0,0,13.2,6.4Z" style="fill:#010101"/></svg>